#!OML:ASF E:/inclinewalkrobotboard/Project1/Captureday1/Session1/subject1.ASF
:FULLY-SPECIFIED
:DEGREES
276
root 0 0 0 45.00317632925643 -47.1609587288292 -18.50833351974013
lowerback -6.486717151123027 3.604274001721457 -0.48362502052324324
upperback -13.441950491251527 4.310624950668704 -0.08302752741329922
thorax -11.044513980834024 2.1118542652316226 0.6776440280762286
lowerneck -11.438252173602312 6.767732678177609 4.440833429898368
upperneck 18.16991744917435 7.238763191946054 7.284078269658588
head 7.632931923507465 4.231013696996252 2.162906001166712
rclavicle 9.23683244949806E-16 -1.834482340082753E-15
rhumerus 7.7833938488121674 -22.480077041050567 -48.46289372917657
rradius 27.947534258855438
rwrist 21.20373594863994
rhand 0.796678481816393 7.407845274305734
rfingers 7.1250200000000286
rthumb 26.417372396233063 -19.650960518347667
lclavicle 1.4648666202551887E-15 -9.14166706052572E-16
lhumerus -10.577228564512653 3.843596836456549 51.473326357368876
lradius 35.64877906949774
lwrist -7.7296450483803705
lhand -1.7724305100887499 23.315396297099824
lfingers 7.125019999999975
lthumb 23.497534735964283 50.48808780735668
rfemur 58.70383775973242 -81.67782541178596 -55.86957193679699
rtibia 40.2151097723626
rfoot -18.41567750247266 -17.944843192731454
rtoes 21.611068544401377
lfemur -44.69977631708688 8.208385359366975 -27.116758709202976
ltibia 44.041551846530744
lfoot -22.75842122441259 14.889656720455811
ltoes 10.861106492405892
277
root 0 0 0 45.00314814993362 -47.1609158798487 -18.50832057434779
lowerback -6.486712392177214 3.604269659196995 -0.4836262495029371
upperback -13.441945939679005 4.310619813221875 -0.08302357496852197
thorax -11.044511152110626 2.111852062166742 0.6776485809600667
lowerneck -11.438250461528348 6.767723883362548 4.44082672301598
upperneck 18.169921242376695 7.238753009011228 7.284074601844727
head 7.632932952984019 4.23100814085208 2.162904816528211
rclavicle 9.237224216167577E-16 -1.8345072222562546E-15
rhumerus 7.783011752801956 -22.480104059134536 -48.46272624166795
rradius 27.947615730434343
rwrist 21.203508438455444
rhand 0.7966161220460766 7.40792804432813
rfingers 7.1250200000000286
rthumb 26.417315540314924 -19.650888455524075
lclavicle 1.4649352828105613E-15 -9.141596642045514E-16
lhumerus -10.577267156458618 3.843466901543864 51.47357095609888
lradius 35.648902354581175
lwrist -7.729453417266079
lhand -1.7723816138542823 23.315354475401723
lfingers 7.125019999999975
lthumb 23.497571315213886 50.48803247786794
rfemur 58.703740155154 -81.67771360249745 -55.86946028838561
rtibia 40.2151103189906
rfoot -18.415669608976103 -17.944829617610697
rtoes 21.6110539558695
lfemur -44.69976973888127 8.208384366296738 -27.11675572041279
ltibia 44.041549010952025
lfoot -22.75841858462207 14.889653418145256
ltoes 10.861105159652091
278
root 0 0 0 45.00312148257172 -47.16087533109271 -18.50830832253573
lowerback -6.486707887787362 3.6042655476660057 -0.4836274149651875
upperback -13.441941638058001 4.310614948559065 -0.08301983325567353
thorax -11.044508480979815 2.1118499762992693 0.677652892613587
lowerneck -11.438248836801915 6.767715562892534 4.44082037548127
upperneck 18.16992482413636 7.238743375946193 7.284071135131585
head 7.632933923430587 4.231002884559226 2.1629036968583417
rclavicle 9.237594831541985E-16 -1.834530763493171E-15
rhumerus 7.782650305625028 -22.480129619253265 -48.46256777357155
rradius 27.94769279855647
rwrist 21.20329322210831
rhand 0.7965571502824265 7.408006328085297
rfingers 7.1250200000000286
rthumb 26.417261775223444 -19.65082029769137
lclavicle 1.4650002491086391E-15 -9.141530030457485E-16
lhumerus -10.57730364989689 3.843343963563713 51.47380236658041
lradius 35.649019008115864
lwrist -7.729272107740041
lhand -1.7723353340308972 23.315314905301012
lfingers 7.125019999999975
lthumb 23.49760594134584 50.48798012461407
rfemur 58.70364765888053 -81.67760765436361 -55.869354497821945
rtibia 40.215110837713695
rfoot -18.415662136543943 -17.94481675464809
rtoes 21.611040142155783
lfemur -44.69976346865295 8.208383411744455 -27.11675288007975
ltibia 44.04154631403473
lfoot -22.758416078982798 14.889650271651952
ltoes 10.861103883446264
279
root 0 0 0 45.00309624838462 -47.16083696305016 -18.508296728426437
lowerback -6.486703624627737 3.6042616554827585 -0.4836285197858166
upperback -13.441937572369927 4.31061034299658 -0.08301629159401491
thorax -11.044505958332 2.111848001710876 0.6776569750045329
lowerneck -11.43824729572124 6.767707691773107 4.440814368739945
upperneck 18.169928206560176 7.23873426367404 7.284067858370475
head 7.632934838482109 4.230997912288559 2.162902638554887
rclavicle 9.237945426207623E-16 -1.8345530350198746E-15
rhumerus 7.782308399411386 -22.480153799189768 -48.46241784719902
rradius 27.94776569951594
rwrist 21.20308964027586
rhand 0.7965013813080457 7.408080368803565
rfingers 7.1250200000000286
rthumb 26.41721093164849 -19.65075583331366
lclavicle 1.4650617147677363E-15 -9.141467020309787E-16
lhumerus -10.577338160301956 3.8432276516619055 51.474021291322835
lradius 35.64912937997399
lwrist -7.729100572245754
lhand -1.7722915354846407 23.315277467614912
lfingers 7.125019999999975
lthumb 23.49763871431881 50.48793059059071
rfemur 58.70356002384444 -81.67750728228171 -55.869254279278344
rtibia 40.2151113297603
rfoot -18.415655063392997 -17.944804569109124
rtoes 21.611027063823023
lfemur -44.69975749694953 8.208382495887276 -27.116750182202043
ltibia 44.04154375051972
lfoot -22.758413701594975 14.889647275993825
ltoes 10.861102663054684
280
root 0 0 0 45.00307237221495 -47.16080066155831 -18.508285757730803
lowerback -6.4866995900326145 3.6042579714600103 -0.48362956678932373
upperback -13.441933729420583 4.310605983379549 -0.08301293972917145
thorax -11.044503575618837 2.111846132719476 0.6776608396701882
lowerneck -11.438245834590424 6.767700246185222 4.440808685047677
upperneck 18.16993140105228 7.238725644501654 7.284064761033354
head 7.632935701523349 4.230993208960129 2.1629016382158257
rclavicle 9.23827707236305E-16 -1.834574104464041E-15
rhumerus 7.78198498437645 -22.48017667274556 -48.46227600868684
rradius 27.947834657225762
rwrist 21.202897068143937
rhand 0.7964486402685687 7.408150396480056
rfingers 7.1250200000000286
rthumb 26.417162849814105 -19.65069486232711
lclavicle 1.4651198656029416E-15 -9.141407417394442E-16
lhumerus -10.577370796464788 3.8431176136957235 51.47422839668496
lradius 35.64923380271707
lwrist -7.728938290951746
lhand -1.7722500891757331 23.315242049131715
lfingers 7.125019999999975
lthumb 23.497669729777826 50.48788372655288
rfemur 58.70347701174818 -81.67741221155627 -55.869159357517375
rtibia 40.215111796336686
rfoot -18.41564836877483 -17.94479302754418
rtoes 21.611014683184457
lfemur -44.69975181386092 8.2083816185927 -27.11674762082808
ltibia 44.04154131512847
lfoot -22.758411446674657 14.889644425991854
ltoes 10.861101497467505
281
root 0 0 0 45.00304978246518 -47.16076631774955 -18.508275377734222
lowerback -6.4866957719677645 3.604254484877772 -0.4836305587324267
upperback -13.441930096787411 4.310601857093959 -0.0830097678406303
thorax -11.044501324816775 2.111844363882692 0.6776644976983675
lowerneck -11.438244449755544 6.767693203462378 4.440803307466368
upperneck 18.16993441834834 7.238717492089744 7.284061833181163
head 7.632936515707559 4.230988760227685 2.162900692629259
rclavicle 9.238590786473348E-16 -1.834594036004235E-15
rhumerus 7.781679065996693 -22.48019830991296 -48.462141827077104
rradius 27.947899883815847
rwrist 21.202714913740778
rhand 0.796398762045369 7.408216628615931
rfingers 7.1250200000000286
rthumb 26.41711737889085 -19.6506371955103
lclavicle 1.4651748780327637E-15 -9.141351038057277E-16
lhumerus -10.577401660954644 3.843013515429146 51.47442431457294
lradius 35.64933259226797
lwrist -7.728784770539232
lhand -1.7722108720451324 23.315208542364548
lfingers 7.125019999999975
lthumb 23.49769907908961 50.487839390716566
rfemur 58.703398393254005 -81.67732217806004 -55.86906946802135
rtibia 40.21511223862172
rfoot -18.41564203293719 -17.944782097804563
rtoes 21.61100296426235
lfemur -44.69974640915 8.20838077946732 -27.11674519008356
ltibia 44.0415390025978
lfoot -22.75840930857613 14.889641716332585
ltoes 10.861100385449703
282
root 0 0 0 45.00302841100725 -47.16073382795307 -18.50826555726916
lowerback -6.486692159002915 3.6042511854851607 -0.4836314982919983
upperback -13.441926662770458 4.310597952070358 -0.08300676654282446
thorax -11.044499198392526 2.111842689998049 0.6776679597175224
lowerneck -11.43824313763209 6.767686542060192 4.440798219852567
upperneck 18.169937268550836 7.238709781414643 7.284059065432645
head 7.632937283974054 4.2309845524585565 2.1628997987634353
rclavicle 9.238887531868645E-16 -1.8346128905190195E-15
rhumerus 7.781389702286717 -22.480218777045998 -48.46201489338268
rradius 27.947961580210844
rwrist 21.20254261632838
rhand 0.7963515906749361 7.408279270905748
rfingers 7.1250200000000286
rthumb 26.417074376453563 -19.650582653891227
lclavicle 1.465226919481503E-15 -9.141297708572336E-16
lhumerus -10.577430850533348 3.8429150397436223 51.47460964407383
lradius 35.649426048586534
lwrist -7.7286395430176125
lhand -1.7721737668701287 23.315176845307175
lfingers 7.125019999999975
lthumb 23.49772684941086 50.48779744845773
rfemur 58.70332394807892 -81.67723692829426 -55.868984357025866
rtibia 40.21511265776267
rfoot -18.415636037086166 -17.944771749046858
rtoes 21.610991872742623
lfemur -44.69974127237079 8.208379977901485 -27.11674288419564
ltibia 44.041536807710756
lfoot -22.75840728180948 14.889639141624293
ltoes 10.861099325586892
283
root 0 0 0 45.00300819307717 -47.16070309356307 -18.508256266677634
lowerback -6.486688740285069 3.6042480634969287 -0.483632388056536
upperback -13.441923416346718 4.31059425678111 -0.0830039268812981
thorax -11.04449718927061 2.111841106100644 0.6776712358939518
lowerneck -11.438241894725385 6.7676802415206225 4.440793406840065
upperneck 18.169939961164438 7.238702488724332 7.28405644893401
head 7.6329380090645795 4.230980572710296 2.162898953757023
rclavicle 9.239168221274453E-16 -1.8346307257344266E-15
rhumerus 7.781116001180536 -22.48023813702855 -48.46189481964895
rradius 27.948019936686773
rwrist 21.202379644853455
rhand 0.7963069788103265 7.408338517886017
rfingers 7.1250200000000286
rthumb 26.41703370797963 -19.65053106818847
lclavicle 1.465276148775374E-15 -9.141247264569917E-16
lhumerus -10.57745845652952 3.8428218858666128 51.474784953027125
lradius 35.64951445634315
lwrist -7.728502164570121
lhand -1.7721386620968431 23.31514686119323
lfingers 7.125019999999975
lthumb 23.49775312378157 50.48775777201172
rfemur 58.703253465007876 -81.67715621936247 -55.86890378147089
rtibia 40.21511305487203
rfoot -18.415630363348935 -17.944761951727223
rtoes 21.61098137592613
lfemur -44.69973639297308 8.208379213109605 -27.116740697513873
ltibia 44.04153472532354
lfoot -22.75840536105392 14.889636696446445
ltoes 10.861098316325911
